<svg width="15" height="13" viewBox="0 0 15 13" fill="none" xmlns="http://www.w3.org/2000/svg">
<path d="M14.3829 0.000313821C14.2271 0.00590154 14.0793 0.0842762 13.9708 0.218834L4.80398 11.2576L1.0319 6.71522C0.976666 6.64595 0.91051 6.59064 0.837304 6.55254C0.764099 6.51444 0.685317 6.49431 0.605571 6.49333C0.525824 6.49235 0.446718 6.51055 0.372884 6.54685C0.29905 6.58315 0.231973 6.63682 0.175581 6.70473C0.119189 6.77264 0.0746162 6.85341 0.0444723 6.94233C0.0143284 7.03124 -0.000780318 7.1265 3.10264e-05 7.22253C0.000842371 7.31856 0.0175575 7.41343 0.0491974 7.50159C0.0808373 7.58974 0.126766 7.66941 0.184293 7.73592L4.38018 12.7887C4.49259 12.924 4.64503 13 4.80398 13C4.96292 13 5.11537 12.924 5.22778 12.7887L14.8184 1.23953C14.905 1.13814 14.9641 1.00761 14.9881 0.865036C15.012 0.722462 14.9997 0.574501 14.9526 0.440541C14.9055 0.306581 14.8259 0.192873 14.7243 0.114318C14.6226 0.0357631 14.5036 -0.00397405 14.3829 0.000313821Z" fill="#646464"/>
</svg>
