<svg width="15" height="15" viewBox="0 0 15 15" fill="none" xmlns="http://www.w3.org/2000/svg">
<path d="M12.3927 0.208313C12.0728 0.208313 11.7529 0.327141 11.5089 0.564351L10.0001 2.03123L13.1251 5.06942L14.6339 3.60255C15.122 3.12798 15.122 2.35864 14.6339 1.88407L13.2765 0.564351C13.0325 0.327141 12.7125 0.208313 12.3927 0.208313ZM8.75007 3.24651L1.41236 10.3803C1.41236 10.3803 1.98595 10.3303 2.19972 10.5382C2.4135 10.746 2.23757 12.1059 2.50002 12.3611C2.76247 12.6163 4.15241 12.4366 4.35184 12.6305C4.55127 12.8244 4.53739 13.4185 4.53739 13.4185L11.8751 6.2847L8.75007 3.24651ZM0.625005 12.3611L0.0354007 13.9846C0.0122071 14.0487 0.000305159 14.1161 0 14.184C0 14.5196 0.279848 14.7916 0.625005 14.7916C0.694891 14.7914 0.764166 14.7798 0.830084 14.7572C0.832068 14.7565 0.834204 14.7556 0.836188 14.7549L0.852057 14.7501L0.855719 14.7477L2.50002 14.184L0.625005 12.3611Z" fill="white"/>
</svg>
