<svg width="15" height="15" viewBox="0 0 15 15" fill="none" xmlns="http://www.w3.org/2000/svg">
<path d="M12.3927 0.208374C12.0728 0.208374 11.7529 0.327202 11.5089 0.564412L10.0001 2.03129L13.1251 5.06949L14.6339 3.60261C15.122 3.12804 15.122 2.3587 14.6339 1.88413L13.2765 0.564412C13.0325 0.327202 12.7125 0.208374 12.3927 0.208374ZM8.75007 3.24657L1.41236 10.3804C1.41236 10.3804 1.98595 10.3304 2.19972 10.5382C2.4135 10.7461 2.23757 12.106 2.50002 12.3612C2.76247 12.6163 4.15241 12.4367 4.35184 12.6306C4.55127 12.8244 4.53739 13.4186 4.53739 13.4186L11.8751 6.28476L8.75007 3.24657ZM0.625005 12.3612L0.0354007 13.9847C0.0122071 14.0488 0.000305159 14.1161 0 14.1841C0 14.5196 0.279848 14.7917 0.625005 14.7917C0.694891 14.7914 0.764166 14.7798 0.830084 14.7573C0.832068 14.7565 0.834204 14.7557 0.836188 14.7549L0.852057 14.7502C0.853278 14.7494 0.854499 14.7485 0.855719 14.7478L2.50002 14.1841L0.625005 12.3612Z" fill="#646464"/>
</svg>
