<svg width="17" height="20" viewBox="0 0 17 20" fill="none" xmlns="http://www.w3.org/2000/svg">
<path d="M8.32194 3.52726e-05C6.94682 0.00654569 5.83333 1.12329 5.83333 2.50004C5.83333 3.27925 6.19303 3.8778 6.57715 4.46455C6.93217 5.00614 6.48641 5.71638 5.8431 5.63643C3.94389 5.40144 2.02148 5.03747 2.02148 5.03747L2.01986 5.0391C1.90389 5.01346 1.78548 5.00044 1.66667 5.00004C0.746256 5.00004 0 5.74629 0 6.6667V10.6885C0 11.4468 0.838826 11.918 1.47624 11.5072C2.087 11.1131 2.72257 10.7672 3.56934 10.8448C4.61507 10.9398 5.53162 11.7192 5.7666 12.7425C6.13993 14.3801 4.90662 15.8334 3.33333 15.8334C2.60824 15.8334 2.03918 15.5211 1.49089 15.1677C0.846761 14.7526 0 15.2092 0 15.975V17.972C0 19.257 0.74585 20 1.66667 20H15C15.9208 20 16.6667 19.2542 16.6667 18.3334V6.6667C16.6667 5.74629 15.9204 5.00004 15 5.00004C14.8818 5.00065 14.764 5.01367 14.6484 5.0391L14.6452 5.03747C14.6452 5.03747 12.7228 5.40144 10.8236 5.63643C10.1786 5.71638 9.73612 5.0039 10.0928 4.45967C10.5153 3.81473 10.907 3.1525 10.8219 2.25427C10.7237 1.21179 9.94425 0.300125 8.92415 0.066767C8.71948 0.0199734 8.51847 -0.000981967 8.32194 3.52726e-05Z" fill="#0071E3"/>
</svg>
