<svg width="15" height="13" viewBox="0 0 15 13" fill="none" xmlns="http://www.w3.org/2000/svg">
<path d="M6.72991 0.607178C6.23814 0.607178 5.80928 0.942392 5.68987 1.41912L5.625 1.67861H1.07143C0.479475 1.67861 0 2.15808 0 2.75003V5.42861H2.82715C3.013 5.10987 3.35462 4.89289 3.75 4.89289C4.14538 4.89289 4.487 5.10987 4.67285 5.42861H10.3271C10.5125 5.10987 10.8551 4.89289 11.251 4.89289C11.6469 4.89289 11.988 5.10987 12.1739 5.42861H15V2.75003C15 2.15808 14.5205 1.67861 13.9286 1.67861H9.375L9.31013 1.41912C9.19124 0.942392 8.7629 0.607178 8.27114 0.607178H6.72991ZM0.535714 6.50003V11.3215C0.535714 11.9134 1.01519 12.3929 1.60714 12.3929H13.3929C13.9848 12.3929 14.4643 11.9134 14.4643 11.3215V6.50003H12.1729C11.9875 6.81877 11.6459 7.03575 11.25 7.03575C10.8541 7.03575 10.513 6.81877 10.3271 6.50003H4.67285C4.487 6.81877 4.14538 7.03575 3.75 7.03575C3.35462 7.03575 3.013 6.81877 2.82715 6.50003H0.535714Z" fill="#646464"/>
</svg>
