<svg width="20" height="16" viewBox="0 0 20 16" fill="none" xmlns="http://www.w3.org/2000/svg">
<path d="M8.97321 0C8.31752 0 7.74571 0.446952 7.5865 1.08259L7.5 1.42857H1.42857C0.6393 1.42857 0 2.06787 0 2.85714V6.42857H3.76953C4.01733 6.00359 4.47283 5.71429 5 5.71429C5.52717 5.71429 5.98267 6.00359 6.23047 6.42857H13.7695C14.0166 6.00359 14.4735 5.71429 15.0014 5.71429C15.5293 5.71429 15.9841 6.00359 16.2319 6.42857H20V2.85714C20 2.06787 19.3607 1.42857 18.5714 1.42857H12.5L12.4135 1.08259C12.255 0.446952 11.6839 0 11.0282 0H8.97321ZM0.714286 7.85714V14.2857C0.714286 15.075 1.35359 15.7143 2.14286 15.7143H17.8571C18.6464 15.7143 19.2857 15.075 19.2857 14.2857V7.85714H16.2305C15.9834 8.28212 15.5279 8.57143 15 8.57143C14.4721 8.57143 14.0173 8.28212 13.7695 7.85714H6.23047C5.98267 8.28212 5.52717 8.57143 5 8.57143C4.47283 8.57143 4.01733 8.28212 3.76953 7.85714H0.714286Z" fill="#0071E3"/>
</svg>
